<?xml version="1.0" encoding="UTF-8" standalone="no"?>
<svg width="34px" height="122px" viewBox="0 0 34 122" version="1.1" xmlns="http://www.w3.org/2000/svg" xmlns:xlink="http://www.w3.org/1999/xlink" xmlns:sketch="http://www.bohemiancoding.com/sketch/ns">
    <!-- Generator: Sketch 3.0.1 (7597) - http://www.bohemiancoding.com/sketch -->
    <title>icons-social</title>
    <description>Created with Sketch.</description>
    <defs></defs>
    <g id="Page-3" stroke="none" stroke-width="1" fill="none" fill-rule="evenodd" sketch:type="MSPage">
        <g id="Group" sketch:type="MSLayerGroup" fill="#FFFFFF">
            <path d="M0,0 L34.016,0 L34.016,34.021 L0,34.021 L0,0 Z M25.037,12.639 C24.411,12.918 23.737,13.105 23.03,13.19 C23.752,12.758 24.306,12.072 24.567,11.257 C23.891,11.657 23.144,11.947 22.346,12.103 C21.71,11.425 20.801,11 19.795,11 C17.866,11 16.301,12.566 16.301,14.496 C16.301,14.77 16.331,15.036 16.391,15.292 C13.486,15.145 10.911,13.756 9.186,11.638 C8.885,12.157 8.713,12.758 8.713,13.398 C8.713,14.609 9.33,15.68 10.268,16.307 C9.696,16.29 9.156,16.132 8.684,15.871 L8.684,15.914 C8.684,17.608 9.889,19.021 11.489,19.342 C11.196,19.424 10.887,19.465 10.568,19.465 C10.343,19.465 10.123,19.444 9.91,19.403 C10.355,20.791 11.645,21.802 13.175,21.83 C11.979,22.767 10.471,23.326 8.834,23.326 C8.552,23.326 8.273,23.31 8,23.278 C9.547,24.269 11.385,24.848 13.358,24.848 C19.788,24.848 23.303,19.522 23.303,14.901 C23.303,14.75 23.3,14.598 23.294,14.449 C23.977,13.956 24.57,13.341 25.037,12.639 Z" id="Fill-133" sketch:type="MSShapeGroup"></path>
            <path d="M0,44 L34.016,44 L34.016,78.021 L2.84217094e-14,78.021 L0,44 Z M13,57.626 L14.759,57.626 L14.759,55.917 C14.759,55.163 14.778,54.001 15.325,53.281 C15.902,52.518 16.693,52 18.055,52 C20.273,52 21.207,52.316 21.207,52.316 L20.768,54.921 C20.768,54.921 20.035,54.71 19.351,54.71 C18.667,54.71 18.055,54.955 18.055,55.638 L18.055,57.626 L20.859,57.626 L20.663,60.17 L18.055,60.17 L18.055,69.011 L14.759,69.011 L14.759,60.17 L13,60.17 L13,57.626 Z" id="Fill-159" sketch:type="MSShapeGroup"></path>
            <path d="M0,88 L34.016,88 L34.016,122.015 L1.42108547e-14,122.015 L0,88 Z M25.008,111.62 L21.249,111.62 L21.249,106.129 C21.249,104.691 20.661,103.711 19.368,103.711 C18.379,103.711 17.829,104.372 17.573,105.011 C17.477,105.239 17.492,105.557 17.492,105.878 L17.492,111.62 L13.768,111.62 C13.768,111.62 13.816,101.892 13.768,101.009 L17.492,101.009 L17.492,102.674 C17.712,101.945 18.902,100.906 20.801,100.906 C23.157,100.906 25.008,102.432 25.008,105.72 L25.008,111.62 Z M10.002,99.68 L9.978,99.68 C8.778,99.68 8,98.87 8,97.843 C8,96.794 8.801,96 10.025,96 C11.248,96 12,96.792 12.024,97.84 C12.024,98.867 11.248,99.68 10.002,99.68 Z M8.429,101.009 L11.744,101.009 L11.744,111.62 L8.429,111.62 L8.429,101.009 Z" id="Fill-134" sketch:type="MSShapeGroup"></path>
        </g>
    </g>
</svg>