<?xml version="1.0" encoding="UTF-8"?>
<svg width="34px" height="166px" viewBox="0 0 34 166" version="1.1" xmlns="http://www.w3.org/2000/svg" xmlns:xlink="http://www.w3.org/1999/xlink">
    <!-- Generator: Sketch 58 (84663) - https://sketch.com -->
    <title>icons-social-sprite</title>
    <desc>Created with Sketch.</desc>
    <g id="Rought-Website" stroke="none" stroke-width="1" fill="none" fill-rule="evenodd">
        <path d="M34.016,0 L34.016,34.021 L0,34.021 L0,0 L34.016,0 Z M19.795,11 C17.866,11 16.301,12.566 16.301,14.496 C16.301,14.77 16.331,15.036 16.391,15.292 C13.486,15.145 10.911,13.756 9.186,11.638 C8.885,12.157 8.713,12.758 8.713,13.398 C8.713,14.609 9.33,15.68 10.268,16.307 C9.696,16.29 9.156,16.132 8.684,15.871 L8.684,15.914 C8.684,17.608 9.889,19.021 11.489,19.342 C11.196,19.424 10.887,19.465 10.568,19.465 C10.343,19.465 10.123,19.444 9.91,19.403 C10.355,20.791 11.645,21.802 13.175,21.83 C11.979,22.767 10.471,23.326 8.834,23.326 C8.552,23.326 8.273,23.31 8,23.278 C9.547,24.269 11.385,24.848 13.358,24.848 C19.788,24.848 23.303,19.522 23.303,14.901 C23.303,14.75 23.3,14.598 23.294,14.449 C23.977,13.956 24.57,13.341 25.037,12.639 C24.411,12.918 23.737,13.105 23.03,13.19 C23.752,12.758 24.306,12.072 24.567,11.257 C23.891,11.657 23.144,11.947 22.346,12.103 C21.71,11.425 20.801,11 19.795,11 Z" id="Fill-133" fill="#FFFFFF"></path>
        <path d="M34.016,44 L34.016,78.021 L2.84217094e-14,78.021 L0,44 L34.016,44 Z M18.055,52 C16.693,52 15.902,52.518 15.325,53.281 C14.778,54.001 14.759,55.163 14.759,55.917 L14.759,55.917 L14.759,57.626 L13,57.626 L13,60.17 L14.759,60.17 L14.759,69.011 L18.055,69.011 L18.055,60.17 L20.663,60.17 L20.859,57.626 L18.055,57.626 L18.055,55.638 C18.055,54.955 18.667,54.71 19.351,54.71 C20.035,54.71 20.768,54.921 20.768,54.921 L20.768,54.921 L21.207,52.316 C21.207,52.316 20.273,52 18.055,52 Z" id="Fill-159" fill="#FFFFFF"></path>
        <path d="M34.016,88 L34.016,122.015 L1.42108547e-14,122.015 L0,88 L34.016,88 Z M20.801,100.906 C18.981125,100.906 17.8123976,101.86022 17.5245332,102.581358 L17.492,102.674 L17.492,101.009 L13.768,101.009 C13.8122353,101.822745 13.7749389,110.148449 13.7688163,111.449436 L13.768,111.62 L17.492,111.62 L17.492,105.878 C17.492,105.557 17.477,105.239 17.573,105.011 C17.829,104.372 18.379,103.711 19.368,103.711 C20.6047826,103.711 21.1965369,104.607635 21.2456558,105.944075 L21.249,106.129 L21.249,111.62 L25.008,111.62 L25.008,105.72 C25.008,102.432 23.157,100.906 20.801,100.906 Z M11.744,101.009 L8.429,101.009 L8.429,111.62 L11.744,111.62 L11.744,101.009 Z M10.025,96 C8.801,96 8,96.794 8,97.843 C8,98.8210952 8.70566893,99.6023651 9.80948062,99.6745538 L9.978,99.68 L10.002,99.68 C11.248,99.68 12.024,98.867 12.024,97.84 C12,96.792 11.248,96 10.025,96 Z" id="Fill-134" fill="#FFFFFF"></path>
        <path d="M34,132 L34,166 L-7.11211167e-15,166 L-2.13162821e-14,132 L34,132 Z M16.5358856,140.178839 L16.5131696,140.178839 C13.4706319,140.178839 12.8178751,140.362612 12.4713151,140.413107 C10.4743476,140.703665 8.65067648,142.089406 8.20821548,144.069517 C7.99539728,145.044668 7.97268539,146.125775 8.01222088,147.117471 C8.06857982,148.539634 8.07951519,149.959309 8.21073912,151.375699 C8.30145768,152.316517 8.45971413,153.249848 8.6843234,154.168701 C9.10491226,155.865693 10.807461,157.277929 12.4755157,157.85406 C14.2614214,158.454902 16.182004,158.554663 18.0222591,158.142148 C18.2246851,158.095776 18.4249052,158.041988 18.6228489,157.980714 C19.069519,157.840824 19.593583,157.684365 19.97884,157.409535 C19.9841201,157.405687 19.9884615,157.400712 19.9915122,157.394962 C19.9945629,157.389236 19.996276,157.3829 19.9964872,157.376423 L19.9964872,156.003941 C19.9963933,155.997886 19.9949384,155.991925 19.9921927,155.986504 C19.9894706,155.981083 19.9855516,155.976343 19.9806939,155.972612 C19.9758597,155.96888 19.9702277,155.966275 19.9642436,155.964961 C19.958236,155.963647 19.9520173,155.96367 19.9460332,155.965031 C18.7670064,156.242184 17.5588102,156.381113 16.3466246,156.37893 C14.2605062,156.37893 13.6994347,155.404601 13.5387565,154.998986 C13.4096178,154.648426 13.3276008,154.28273 13.2948175,153.911237 C13.2944889,153.905018 13.2956623,153.898776 13.2982202,153.893073 C13.3007781,153.887347 13.3046971,153.882325 13.3096017,153.878359 C13.3145297,153.874416 13.3203261,153.871671 13.3265213,153.870333 C13.3327166,153.868995 13.3391466,153.869113 13.3452949,153.870685 C14.5046798,154.14596 15.6931638,154.284889 16.8858249,154.284584 C17.1726615,154.284584 17.4586533,154.284584 17.7455133,154.277145 C18.9450268,154.244032 20.209309,154.183603 21.3894857,153.956764 C21.4189367,153.950991 21.4483642,153.946016 21.4736147,153.938553 C23.3351309,153.58675 25.1066514,152.482456 25.2866664,149.686146 C25.2934014,149.576059 25.3102272,148.533016 25.3102272,148.418775 C25.3110721,148.03055 25.4372539,145.664683 25.2917118,144.211074 C25.0242355,142.254139 23.2913885,140.711944 21.237232,140.413107 C20.890672,140.362612 19.5775786,140.178839 16.5358856,140.178839 Z M19.5599314,143.076155 C20.4246652,143.076155 21.1219858,143.375813 21.6552959,143.959406 C22.1706771,144.543845 22.4283443,145.333015 22.4283443,146.326916 L22.4266547,151.188615 L20.4692525,151.188615 L20.4692525,146.470139 C20.4692525,145.476778 20.0486542,144.970158 19.1931664,144.970158 C18.2527281,144.970158 17.7816759,145.569475 17.7816759,146.753253 L17.7816759,149.335985 L15.8360306,149.335985 L15.8360306,146.753253 C15.8360306,145.569475 15.3641336,144.970158 14.4236954,144.970158 C13.5732529,144.970158 13.1484541,145.476778 13.1476093,146.470139 L13.1476093,151.188615 L11.1918732,151.188615 L11.1918732,146.326916 C11.1918732,145.333554 11.4495638,144.544384 11.9649216,143.959406 C12.4965421,143.375813 13.1938861,143.076155 14.0594648,143.076155 C15.0612926,143.076155 15.81836,143.455275 16.3230638,144.212716 L16.8101205,145.017351 L17.2979985,144.212716 C17.8027023,143.455275 18.5597698,143.076155 19.5599314,143.076155 Z" id="Combined-Shape" fill="#FFFFFF"></path>
    </g>
</svg>