<?xml version="1.0" encoding="UTF-8" standalone="no"?>
<svg width="20px" height="40px" viewBox="0 0 20 40" version="1.1" xmlns="http://www.w3.org/2000/svg" xmlns:xlink="http://www.w3.org/1999/xlink" xmlns:sketch="http://www.bohemiancoding.com/sketch/ns">
    <!-- Generator: Sketch 3.0.1 (7597) - http://www.bohemiancoding.com/sketch -->
    <title>ui-checkbox-sprite</title>
    <description>Created with Sketch.</description>
    <defs></defs>
    <g id="Page-3" stroke="none" stroke-width="1" fill="none" fill-rule="evenodd" sketch:type="MSPage">
        <g id="Group" sketch:type="MSLayerGroup" fill="#FFFFFF">
            <path d="M0,0 L0,18 L18,18 L18,0 L0,0 Z M2,2 L2,16 L16,16 L16,2 L2,2 Z" id="Rectangle-7" fill-opacity="0.25" sketch:type="MSShapeGroup"></path>
            <path d="M0,22 L0,40 L18,40 L18,22 L0,22 Z M2,24 L2,38 L16,38 L16,24 L2,24 Z" id="Rectangle-9" fill-opacity="0.25" sketch:type="MSShapeGroup"></path>
            <path d="M8.00094799,35.3048855 L9.11604748,36.419985 L10.1739851,35.2505143 L19.6594038,24.7650957 L17.4346498,22.7525177 C17.4346498,22.7525177 9.30738113,32.3814777 8.94055195,32.0146485 C7.73378518,30.8078817 5.40148048,28.4627773 5.40148048,28.4627773 L3.28016014,30.5840977 L8.00094799,35.3048855 Z" id="Path-1" sketch:type="MSShapeGroup"></path>
        </g>
    </g>
</svg>